<svg xmlns="http://www.w3.org/2000/svg" width="108.44" height="108.44" viewBox="0 0 108.44 108.44">
  <defs>
    <clipPath id="a" clipPathUnits="userSpaceOnUse">
      <path d="M0 516h1398V0H0Z"/>
    </clipPath>
  </defs>
  <g clip-path="url(#a)" style="fill:#777;fill-opacity:1" transform="matrix(.24048 -.27067 -.2877 -.22625 -102.834 403.803)">
    <g style="fill:#777;fill-opacity:1">
      <path d="M0 0c-.324.268-33.612 26.345-76.892 5.027-3.023-1.488-15.168-9.93-22.266-15.95-9.737-8.245-23.411-21.054-36.633-33.444-12.483-11.695-24.273-22.74-32.937-30.181-7.478-6.42-20.557-15.765-30.063-20.444-13.129-6.458-39.438-15.774-68.103-5.626-.403.143-34.215 13.228-45.991 51.202 1.457-17.508 9.588-51.534 49.337-67.499 3.002-1.207 57.383-21.424 120.235 30.514 5.481 4.528 65.886 57.614 70.537 60.883 9.846 6.925 45.696 18.14 57.923-17.7.499-1.464 1.796-8.497.802-16.791 0 0-6.484-19.868-25.673-12.149-10.835 4.357-8.637-2.036-4.635-5.268 3.423-2.764 18.35-5.57 26.437 3.983-4.828-9.699-14.752-18.133-34.432-18.828-1.742-.062-23.657 2.52-29.311 23.666-.927 3.453-4.844 8.01-8.626 8.218-3.002.164-4.954-3.248-5.106-5.968-.289-5.099 3.739-15.108 6.299-18.639 2.562-3.531 4.547-10.962-.091-9.933-4.642 1.031-9.199 12.23-9.425 18.031-.101 2.505-.933 8.748-4.275 9.213-3.742.52-2.775-6.96-2.377-8.967 8.222-41.451 62.917-54.951 97.087-38.19 21.452 10.525 26.541 23.534 29.234 28.512 6.031 11.145 8.528 24.875 7.527 37.474C27.165-31.024 17.545-14.588 0 0" style="fill:#777;fill-opacity:1;fill-rule:nonzero;stroke:none" transform="translate(1169.423 354.045)"/>
    </g>
    <g style="fill:#777;fill-opacity:1">
      <path d="M0 0c-.052.001-.095.011-.144.011-4.692.001-9.44 2.004-12.929 5.106-3.197 2.843-4.492 6.977-7.333 10.078-3.477 3.794-8.731 3.243-8.418-2.65.178-3.346 1.885-6.367 4.139-8.763 3.513-3.719 8.626-5.82 13.605-5.846C-9.636-2.071-1.374-1.717 0 0" style="fill:#777;fill-opacity:1;fill-rule:nonzero;stroke:none" transform="translate(1127.212 270.15)"/>
    </g>
    <g style="fill:#777;fill-opacity:1">
      <path d="M0 0c1.717.37 2.476 3.569 1.698 7.146-.78 3.573-2.8 6.169-4.51 5.795-1.716-.371-2.475-3.572-1.695-7.146C-3.729 2.222-1.71-.373 0 0" style="fill:#777;fill-opacity:1;fill-rule:nonzero;stroke:none" transform="translate(1093.415 291.036)"/>
    </g>
    <g style="fill:#777;fill-opacity:1">
      <path d="M0 0c-1.153 1.481-3.801 2.897-5.107.615-1.038-1.806.734-4.8 1.689-6.358 6.572-10.778 29.853-13.28 36.122-12.547-.404-.048-14.706 2.957-23.561 9.51C5.591-6.15 3.146-4.053 0 0" style="fill:#777;fill-opacity:1;fill-rule:nonzero;stroke:none" transform="translate(1074.423 250.84)"/>
    </g>
  </g>
  <g style="fill:#ccc;fill-opacity:1">
    <path d="M961.426 398.761s26.36-3.308 31.64-28.78c3.734-18.014-.869-27.156-4.473-34.076 8.172 7.707 11.797 13.886 13.391 22.803 2.679 14.997-2.87 27.57-12.769 35.334-5.163 4.048-12.437 5.304-19.295 5.305-2.979 0-5.878-.237-8.494-.586" style="fill:#ccc;fill-opacity:1;stroke:none" transform="matrix(.24048 -.27067 -.2877 -.22625 -102.834 403.803)"/>
  </g>
  <g style="fill:#ccc;fill-opacity:1;stroke-width:1.00063;stroke-miterlimit:4;stroke-dasharray:none">
    <path d="M923.362 396.214a105.266 105.266 0 0 1-12.544-3.558c-16.521-5.778-33.205-18.95-41.521-34.324-6.032-11.147-8.533-24.877-7.531-37.476 1.419-17.831 11.037-34.266 28.584-48.852.326-.27 33.612-26.345 76.894-5.03 3.021 1.491 15.165 9.934 22.266 15.952 9.734 8.245 23.408 21.055 36.63 33.444 12.485 11.696 24.275 22.74 32.937 30.179 7.479 6.421 20.557 15.769 30.066 20.446 13.128 6.458 39.433 15.774 68.101 5.625.402-.143 34.216-13.227 45.99-51.202-1.46 17.508-9.587 51.534-49.338 67.5-3 1.207-64.664 29.419-120.235-30.514-4.835-5.213-65.883-57.613-70.536-60.883-9.846-6.925-45.697-18.14-57.924 17.699-1.33 3.904-8.319 47.434 37.507 49.053 12.245.433 30.487-6.211 30.746-25.087.138-10.164-8.834-17.045-11.882-17.331 9.899.927 19.943 10.378 24.255 18.907 2.89 5.715 4.115 12.261 3.868 18.639-.402 10.412-3.974 20.609-11.709 27.716-2.534 2.328-5.568 4.091-8.691 5.503-8.644 3.911-18.113 5.6-27.594 5.6-6.183 0-12.37-.718-18.339-2.006" style="fill:#ccc;fill-opacity:1;stroke:none;stroke-width:1.00063;stroke-miterlimit:4;stroke-dasharray:none" transform="matrix(.24048 -.27067 -.2877 -.22625 -102.834 403.803)"/>
  </g>
  <g style="fill:#ccc;fill-opacity:1">
    <path d="M906.006 393.436c3.097 1.084 6.505 1.705 9.68 2.355 3.437.702 6.614 2.217 10.001 3.097 6.79 1.762 14 1.715 20.749 3.718a15.21 15.21 0 0 1 3.194 1.382c2.983 1.721 5.598 4.572 5.263 8.15-.68 7.271-8.881 13.354-15.261 15.506-.188.064-.29.094-.29.094 2.987-2.062 4.879-20.936-33.336-34.302" style="fill:#ccc;fill-opacity:1;stroke:none" transform="matrix(.24048 -.27067 -.2877 -.22625 -102.834 403.803)"/>
  </g>
  <g style="fill:#ccc;fill-opacity:1">
    <path d="M946.794 327.485c-19.136-10.529-12.666-20.598-12.683-22.291 2.066 9.042 20.731 14.617 20.731 14.617 23.722 12.554 10.476 29.225 10.476 29.225 3.162-12.71-9.992-16.859-18.524-21.551" style="fill:#ccc;fill-opacity:1;stroke:none" transform="matrix(.24048 -.27067 -.2877 -.22625 -102.834 403.803)"/>
  </g>
</svg>
