<?xml version="1.0" standalone="no"?>
<!DOCTYPE svg PUBLIC "-//W3C//DTD SVG 20010904//EN"
 "http://www.w3.org/TR/2001/REC-SVG-20010904/DTD/svg10.dtd">
<svg version="1.0" xmlns="http://www.w3.org/2000/svg"
 width="700.000000pt" height="700.000000pt" viewBox="0 0 700.000000 700.000000"
 preserveAspectRatio="xMidYMid meet">
<metadata>
Created by potrace 1.14, written by Peter Selinger 2001-2017
</metadata>
<g transform="translate(0.000000,700.000000) scale(0.100000,-0.100000)"
fill="#000000" stroke="none">
<path d="M4798 6995 c-1 -2 -28 -6 -58 -9 -266 -26 -597 -145 -875 -313 -84
-51 -272 -189 -340 -248 -16 -15 -41 -37 -55 -49 -105 -92 -336 -368 -394
-471 -9 -16 -33 -57 -52 -90 -70 -119 -142 -283 -190 -430 -22 -69 -72 -281
-80 -340 -2 -16 -6 -46 -9 -65 -24 -176 -25 -571 0 -698 20 -107 38 -856 39
-1692 l1 -545 -32 -92 c-61 -175 -144 -313 -257 -427 -158 -160 -337 -238
-551 -239 -246 -1 -405 52 -594 197 -64 49 -175 160 -216 216 -62 83 -122 211
-140 300 -14 64 -13 211 1 274 20 88 61 190 111 275 172 291 416 457 688 467
118 4 188 -11 287 -63 122 -64 200 -152 233 -265 19 -66 26 -161 14 -200 -11
-39 -3 -35 20 10 16 32 27 65 48 147 3 11 7 67 9 125 9 289 -123 540 -378 720
-90 64 -210 122 -325 157 -79 24 -103 26 -243 26 -142 0 -162 -2 -232 -26
-382 -131 -723 -454 -940 -890 -140 -280 -199 -532 -193 -832 3 -176 8 -219
36 -345 83 -362 317 -682 672 -918 132 -88 376 -181 542 -208 22 -3 42 -7 45
-9 27 -16 373 -24 512 -12 213 19 317 44 493 119 486 208 835 586 993 1078 25
77 39 136 47 205 3 28 8 64 10 80 31 241 24 725 -20 1410 -8 133 -16 254 -20
325 -8 164 -17 318 -20 370 -7 100 -18 424 -18 510 0 92 11 330 18 370 2 14 6
52 10 85 18 180 54 345 110 505 131 378 350 696 639 928 162 130 292 202 473
262 236 77 461 114 698 113 89 0 241 -10 280 -18 11 -3 37 -7 58 -10 106 -15
243 -51 382 -100 32 -11 -73 54 -160 100 -295 154 -567 224 -892 230 -100 2
-183 2 -185 0z"/>
<path d="M5267 6575 c-1 -1 -42 -5 -92 -9 -231 -17 -376 -56 -593 -162 -108
-52 -289 -167 -362 -229 -78 -66 -209 -205 -267 -283 -168 -222 -294 -516
-318 -742 -4 -30 -8 -68 -10 -85 -11 -90 -19 -281 -18 -440 0 -219 9 -444 38
-920 2 -33 6 -108 10 -167 3 -58 8 -130 10 -160 2 -29 7 -109 10 -178 3 -69 8
-150 10 -180 23 -357 23 -794 0 -932 -2 -13 -6 -50 -10 -83 -3 -33 -8 -69 -10
-80 -2 -11 -7 -37 -10 -58 -56 -405 -269 -835 -556 -1128 -270 -274 -512 -407
-884 -484 -87 -18 -117 -23 -180 -30 -27 -3 -63 -8 -80 -11 -70 -12 -372 -6
-475 11 -14 2 -45 6 -70 10 -98 15 -206 44 -375 100 -11 4 5 -9 35 -29 105
-69 367 -189 470 -216 183 -47 232 -59 275 -65 28 -4 61 -9 75 -12 54 -10 330
-12 415 -3 76 8 123 16 265 45 97 19 331 109 455 173 78 41 263 171 334 235
231 208 425 449 571 712 90 161 189 394 234 548 14 45 29 94 35 110 6 15 8 27
6 27 -2 0 0 11 5 25 5 14 21 85 36 157 32 164 30 152 39 223 4 32 9 68 11 78
25 131 24 601 -2 1687 -2 107 -6 346 -8 531 -4 307 -2 344 15 420 26 109 83
238 152 341 181 270 418 400 720 392 52 -1 104 -5 115 -8 11 -4 36 -9 57 -11
20 -3 45 -10 56 -15 10 -6 19 -8 19 -5 0 7 110 -35 145 -57 17 -10 39 -22 50
-27 28 -12 160 -115 197 -153 65 -66 109 -208 102 -326 -7 -122 -104 -246
-250 -322 -75 -39 -134 -89 -134 -113 0 -53 127 -65 218 -21 83 41 191 152
235 244 40 82 45 99 47 180 l2 55 14 -33 c28 -64 46 -181 41 -266 -5 -87 -23
-185 -38 -200 -5 -6 -9 -16 -9 -24 0 -41 -109 -228 -186 -319 -77 -90 -234
-180 -392 -225 -61 -17 -103 -22 -202 -22 -130 1 -167 8 -307 58 -155 56 -315
12 -315 -87 0 -44 23 -87 64 -122 65 -55 243 -124 373 -145 158 -26 242 -58
266 -101 8 -17 5 -25 -21 -49 -28 -26 -40 -30 -89 -30 -116 0 -273 46 -373
109 -139 88 -205 107 -251 71 -35 -28 -28 -55 25 -104 84 -77 284 -157 475
-191 107 -19 315 -16 438 6 129 23 126 22 236 59 503 168 952 598 1127 1080
64 176 87 321 86 530 -2 186 -23 279 -105 470 -85 199 -184 349 -326 495 -267
275 -570 422 -971 471 -44 6 -319 13 -325 9z"/>
<path d="M5807 4540 c-34 -34 -147 -94 -197 -106 -19 -4 -42 -9 -50 -11 -22
-5 -120 -4 -155 2 -84 13 -177 15 -212 6 -83 -23 -111 -96 -57 -152 23 -24 73
-55 96 -59 4 -1 22 -6 40 -11 55 -17 162 -11 229 11 132 45 236 138 319 285
29 52 22 71 -13 35z"/>
<path d="M4673 4447 c-40 -22 -38 -53 5 -100 62 -65 216 -106 247 -64 17 24 9
49 -28 88 -55 56 -182 99 -224 76z"/>
<path d="M1458 3985 c-2 -2 -19 -7 -38 -10 -164 -27 -335 -149 -485 -344 -51
-67 -49 -68 23 -18 76 51 228 117 329 143 214 54 422 30 625 -72 66 -33 196
-111 208 -124 3 -3 23 -19 45 -35 98 -73 190 -185 255 -310 23 -44 43 -82 46
-84 4 -5 -2 57 -16 145 -33 207 -150 391 -345 540 -88 68 -242 137 -355 159
-38 8 -286 16 -292 10z"/>
<path d="M210 3670 c-47 -10 -112 -30 -145 -45 l-60 -26 38 -14 c89 -31 157
-122 196 -263 17 -62 20 -96 17 -215 -2 -78 -7 -153 -10 -167 -4 -14 -9 -41
-12 -60 -3 -19 -7 -42 -10 -50 -3 -8 -8 -24 -10 -35 -2 -11 -19 -66 -37 -122
-18 -57 -32 -103 -31 -103 6 0 123 232 144 285 31 79 58 128 145 260 130 198
163 266 169 346 13 175 -147 260 -394 209z"/>
<path d="M6165 3628 c-70 -51 -236 -141 -335 -179 -121 -48 -258 -76 -384 -78
-124 -2 -159 -17 -154 -64 2 -27 10 -36 48 -54 59 -29 155 -35 245 -17 151 31
388 176 555 340 80 78 90 100 25 52z"/>
<path d="M1880 2894 c0 -2 18 -15 40 -29 49 -31 96 -94 112 -149 20 -72 12
-172 -26 -336 -53 -232 -61 -308 -40 -407 17 -82 39 -127 85 -174 30 -30 111
-79 133 -79 2 0 -5 19 -16 41 -21 44 -27 151 -14 236 11 68 71 257 89 281 5 6
7 12 3 12 -3 0 -1 12 4 26 15 39 20 191 8 254 -25 140 -116 248 -248 295 -47
17 -130 35 -130 29z"/>
</g>
</svg>
